<?xml version="1.0" standalone="no"?>
<!DOCTYPE svg PUBLIC "-//W3C//DTD SVG 20010904//EN"
 "http://www.w3.org/TR/2001/REC-SVG-20010904/DTD/svg10.dtd">
<svg version="1.0" xmlns="http://www.w3.org/2000/svg"
 width="30.000000pt" height="30.000000pt" viewBox="0 0 30.000000 30.000000"
 preserveAspectRatio="xMidYMid meet">

<g transform="translate(0.000000,30.000000) scale(0.100000,-0.100000)"
fill="#000000" stroke="none">
<path d="M140 218 c0 -81 0 -81 -20 -63 -33 30 -33 11 0 -20 l30 -29 30 29
c33 31 33 50 0 20 -20 -18 -20 -18 -20 63 0 48 -4 82 -10 82 -6 0 -10 -34 -10
-82z"/>
<path d="M32 248 c-16 -16 -16 -190 0 -206 16 -16 220 -16 236 0 16 16 16 190
0 206 -14 14 -58 16 -58 3 0 -5 12 -11 28 -13 l27 -3 0 -90 0 -90 -115 0 -115
0 0 90 0 90 28 3 c15 2 27 8 27 13 0 13 -44 11 -58 -3z"/>
</g>
</svg>
